<?xml version="1.0" encoding="UTF-8"?>
<svg width="24px" height="24px" viewBox="0 0 24 24" version="1.1" xmlns="http://www.w3.org/2000/svg" xmlns:xlink="http://www.w3.org/1999/xlink">
    <title>Up arrow icon</title>
    <g id="Symbols" stroke="none" stroke-width="1" fill="none" fill-rule="evenodd">
        <g id="lbh-components/burger-menu-back" transform="translate(-10.000000, 0.000000)" fill="#000000" fill-rule="nonzero">
            <g id="Group-Copy" transform="translate(8.000000, 4.00000)">
                <g id="bars-solid-copy">
                    <path d="M6.02631571,20.5590417 L6,20.5837653 L6,5.05813049 C6,4.47371179 6.33917257,4 6.7576101,4 L8.65163536,4 C9.07007289,4 9.40924546,4.47371179 9.40924546,5.05813049 L9.40924546,17.3674753 C9.41408513,17.3674117 9.41891709,17.3673796 9.42374133,17.3673796 C11.5386984,17.3673796 15.5759872,17.3673796 21.5356079,17.3673796 C22.1193937,17.3673796 22.5925926,17.6882435 22.5925926,18.0840936 L22.5925926,19.8758786 C22.5925926,20.2717287 22.1193937,20.5925926 21.5356079,20.5925926 L6.00460908,20.5923845 C6.01185154,20.5812413 6.01908709,20.5701271 6.02631571,20.5590417 Z" id="Shape" transform="translate(14.296296, 12.296296) rotate(-225.000000) translate(-14.296296, -12.296296) "></path>
                </g>
            </g>
        </g>
    </g>
</svg>
